<svg xmlns="http://www.w3.org/2000/svg" viewBox="0 0 24 24" class="Activity--activity-icon--3ZVev" title="strava.activities.types_v2.Hike" height="24" width="24"><path d="M23.22 15.94a2.64 2.64 0 00-2-1.92c-1.46-.29-3.15-.76-3.72-.92l-5.59-4.64L11 3.8a1 1 0 00-1-.8 8.64 8.64 0 00-5.38 2H2a1 1 0 00-1 .91C.9 7 0 17 0 18c0 1.49 1.37 3 4 3h3a2.71 2.71 0 001.85-.82l.22-.18a13.17 13.17 0 013.09.42A19.7 19.7 0 0017 21a7.4 7.4 0 005.71-2.29 2.84 2.84 0 00.51-2.77zM5 6a7.65 7.65 0 015-2l.86 4.29A13 13 0 007.65 8H1.82L2 6zm17 12a6.37 6.37 0 01-5 2c-4 0-5-1-8-1-.7 0-1 1-2 1H4c-2 0-3-1-3-2 0-.66.43-5.67.73-9h5.94a9.16 9.16 0 014.08.74l-1.54 1.32a.5.5 0 10.65.76l1.66-1.42a.47.47 0 00.06-.08l1.62 1.35L12.7 13a.5.5 0 00.32.88.49.49 0 00.32-.12L15 12.32l1.61 1.34-1.41 1.21a.5.5 0 00.32.88.49.49 0 00.32-.12l1.72-1.47s2.16.59 3.45.84a2 2 0 01.99 3z"></path></svg>
