<svg xmlns="http://www.w3.org/2000/svg" viewBox="0 0 24 24" class="Activity--activity-icon--3ZVev" title="strava.activities.types_v2.Swim" height="24" width="24"><path d="M6.51 8A4.14 4.14 0 0010 5.86 4.14 4.14 0 0013.51 8 4.15 4.15 0 0017 5.86 4.15 4.15 0 0020.51 8a4.07 4.07 0 002.29-.71.5.5 0 00-.57-.82 3.09 3.09 0 01-1.72.53 3.39 3.39 0 01-3-2.47.52.52 0 00-.94 0 3.39 3.39 0 01-3 2.47 3.39 3.39 0 01-3-2.47.52.52 0 00-.94 0A3.39 3.39 0 016.51 7a3.09 3.09 0 01-1.71-.53.5.5 0 10-.57.82A4.07 4.07 0 006.51 8zM22.22 18.47a3.09 3.09 0 01-1.71.53 3.39 3.39 0 01-3-2.47.52.52 0 00-.94 0 3.39 3.39 0 01-3 2.47 3.39 3.39 0 01-3-2.47.52.52 0 00-.94 0 3.39 3.39 0 01-3 2.47 3.09 3.09 0 01-1.71-.53.5.5 0 10-.57.82 4.07 4.07 0 002.16.71A4.14 4.14 0 0010 17.86 4.14 4.14 0 0013.51 20 4.15 4.15 0 0017 17.86 4.15 4.15 0 0020.51 20a4.07 4.07 0 002.29-.71.5.5 0 00-.57-.82zM7 11.86A4.14 4.14 0 0010.51 14 4.15 4.15 0 0014 11.86 4.15 4.15 0 0017.51 14a4.07 4.07 0 002.29-.71.5.5 0 00-.57-.82 3.09 3.09 0 01-1.71.53 3.39 3.39 0 01-3-2.47.52.52 0 00-.94 0 3.35 3.35 0 01-3 2.47 3.39 3.39 0 01-3-2.47.52.52 0 00-.94 0 3.39 3.39 0 01-3 2.47 3.09 3.09 0 01-1.71-.53.5.5 0 10-.57.82 4.07 4.07 0 002.15.71A4.14 4.14 0 007 11.86z"></path></svg>
